<svg xmlns="http://www.w3.org/2000/svg" viewBox="0 0 512 512" fill="none">
  <rect width="512" height="512" rx="128" fill="#0f172a"/>
  <circle cx="256" cy="256" r="180" stroke="#38bdf8" stroke-width="16" stroke-dasharray="8 8" opacity="0.4"/>
  <path d="M160 280C140 280 120 260 120 230C120 205 138 185 160 180C165 140 200 110 245 110C270 110 295 122 310 140C325 125 350 120 370 135C390 150 395 175 390 195C405 205 415 220 415 240C415 265 395 280 375 280L160 280Z" fill="#38bdf8" opacity="0.9"/>
  <rect x="150" y="295" width="232" height="36" rx="10" fill="#38bdf8"/>
  <circle cx="256" cy="390" r="45" fill="#1e293b" stroke="#38bdf8" stroke-width="8"/>
  <path d="M256 365V390L275 400" stroke="#f59e0b" stroke-width="6" stroke-linecap="round"/>
</svg>
